<?xml version="1.0" encoding="UTF-8"?>
<svg xmlns="http://www.w3.org/2000/svg" width="320" height="220" viewBox="0 0 320 220" role="img" aria-label="roc example rendered in Graphitix" data-graphitix-welcome-thumbnail="roc" data-preview-source="Graphitix owner-scoped SVG projection" data-source-format="svg" data-inline-ready="true" data-id-prefix="graphitix-welcome-roc-id-" data-export-projection="svg" data-graph-title-suppressed="true" data-proportional-stroke-contract="source-viewport-baked-strokes-v1" data-source-viewport-width="452" data-source-viewport-height="392" data-thumbnail-visual-scale="0.510204081633" data-non-scaling-stroke-count="0" preserveAspectRatio="xMidYMid meet" font-family="Arial, Helvetica, sans-serif"><rect width="320" height="220" fill="#ffffff" data-welcome-thumbnail-background="true"/><g transform="matrix(0.510204081633 0 0 0.510204081633 44.69387755102 10)" data-welcome-thumbnail-content="true"><g id="graphitix-welcome-roc-id-1" transform="matrix(1 0 0 1 2 0)" data-export-physical-projection="materialized"><line x1="79.141" y1="326" x2="367.141" y2="326" stroke="#000000" stroke-linecap="square" stroke-width="1"/><line x1="79.141" y1="38" x2="79.141" y2="326" stroke="#000000" stroke-linecap="square" stroke-width="1"/><line x1="79.141" y1="38" x2="367.141" y2="38" stroke="#000000" stroke-linecap="square" stroke-width="1"/><line x1="367.141" y1="38" x2="367.141" y2="326" stroke="#000000" stroke-linecap="square" stroke-width="1"/><line x1="79.141" y1="326" x2="367.141" y2="38" stroke="#888" stroke-dasharray="4,4"/><line x1="79.141" y1="326" x2="79.141" y2="332" stroke="#000000" stroke-width="1"/><text x="79.141" y="344" text-anchor="middle" font-size="16" fill="#000000" dy="5.6" font-family="Arial, Helvetica, sans-serif">0</text><line x1="175.131" y1="326" x2="175.131" y2="332" stroke="#000000" stroke-width="1"/><text x="175.131" y="344" text-anchor="middle" font-size="16" fill="#000000" dy="5.6" font-family="Arial, Helvetica, sans-serif">0.33</text><line x1="271.15" y1="326" x2="271.15" y2="332" stroke="#000000" stroke-width="1"/><text x="271.15" y="344" text-anchor="middle" font-size="16" fill="#000000" dy="5.6" font-family="Arial, Helvetica, sans-serif">0.67</text><line x1="367.141" y1="326" x2="367.141" y2="332" stroke="#000000" stroke-width="1"/><text x="367.141" y="344" text-anchor="middle" font-size="16" fill="#000000" dy="5.6" font-family="Arial, Helvetica, sans-serif">1</text><line x1="73.141" y1="326" x2="79.141" y2="326" stroke="#000000" stroke-width="1"/><text x="67.141" y="326" text-anchor="end" font-size="16" fill="#000000" font-family="Arial, Helvetica, sans-serif" dy="0.35em">0</text><line x1="73.141" y1="230.01" x2="79.141" y2="230.01" stroke="#000000" stroke-width="1"/><text x="67.141" y="230.01" text-anchor="end" font-size="16" fill="#000000" font-family="Arial, Helvetica, sans-serif" dy="0.35em">0.33</text><line x1="73.141" y1="133.99" x2="79.141" y2="133.99" stroke="#000000" stroke-width="1"/><text x="67.141" y="133.99" text-anchor="end" font-size="16" fill="#000000" font-family="Arial, Helvetica, sans-serif" dy="0.35em">0.67</text><line x1="73.141" y1="38" x2="79.141" y2="38" stroke="#000000" stroke-width="1"/><text x="67.141" y="38" text-anchor="end" font-size="16" fill="#000000" font-family="Arial, Helvetica, sans-serif" dy="0.35em">1</text><text x="223.141" y="382" text-anchor="middle" font-size="16" fill="#000000" style=" touch-action: none" font-family="Arial, Helvetica, sans-serif">False Positive Rate</text><text x="16" y="182" text-anchor="middle" font-size="16" transform="rotate(-90 16 182)" fill="#000000" style=" touch-action: none" font-family="Arial, Helvetica, sans-serif">True Positive Rate</text><text x="223.141" y="25.6" text-anchor="middle" font-size="16" fill="#000000" style="visibility: hidden; touch-action: none" font-family="Arial, Helvetica, sans-serif">ROC curve</text><path d="M79.141 326L95.141 199.561L127.141 143.366L139.141 136.341L219.141 52.049L367.141 38" fill="none" stroke="#0000ff" stroke-width="2"/><path d="M79.141 326L79.141 318.976L79.141 311.951L79.141 304.927L79.141 297.902L79.141 290.878L79.141 283.854L79.141 269.805L79.141 262.78L79.141 255.756L79.141 248.732L79.141 241.707L87.141 241.707L87.141 234.683L91.141 227.659L99.141 227.659L103.141 227.659L107.141 227.659L107.141 213.61L111.141 213.61L111.141 206.585L115.141 206.585L115.141 199.561L119.141 199.561L123.141 192.537L127.141 185.512L127.141 178.488L131.141 178.488L131.141 171.463L131.141 164.439L131.141 157.415L135.141 157.415L135.141 150.39L135.141 143.366L143.141 143.366L147.141 143.366L155.141 143.366L167.141 136.341L183.141 136.341L199.141 129.317L211.141 115.268L211.141 108.244L227.141 101.22L255.141 87.171L279.141 73.122L303.141 66.098L327.141 45.024L335.141 45.024L347.141 45.024L367.141 45.024L367.141 38" fill="none" stroke="#ff0000" stroke-width="2"/><path d="M79.141 326L79.141 318.976L83.141 318.976L83.141 311.951L87.141 311.951L87.141 304.927L91.141 304.927L91.141 297.902L95.141 297.902L99.141 297.902L99.141 290.878L99.141 283.854L99.141 276.829L99.141 269.805L103.141 269.805L107.141 269.805L111.141 269.805L111.141 262.78L115.141 262.78L119.141 262.78L119.141 255.756L119.141 248.732L119.141 241.707L119.141 234.683L123.141 234.683L127.141 234.683L131.141 234.683L135.141 234.683L135.141 227.659L139.141 227.659L143.141 227.659L147.141 227.659L147.141 220.634L147.141 213.61L151.141 206.585L155.141 206.585L159.141 206.585L159.141 199.561L159.141 192.537L163.141 192.537L163.141 185.512L163.141 178.488L167.141 178.488L171.141 178.488L171.141 171.463L175.141 171.463L179.141 171.463L183.141 164.439L187.141 164.439L187.141 157.415L191.141 157.415L195.141 157.415L199.141 157.415L203.141 157.415L207.141 157.415L207.141 150.39L211.141 150.39L215.141 150.39L215.141 143.366L219.141 143.366L219.141 136.341L219.141 129.317L219.141 122.293L223.141 122.293L227.141 122.293L231.141 122.293L235.141 122.293L239.141 122.293L243.141 122.293L243.141 115.268L247.141 115.268L251.141 115.268L251.141 108.244L255.141 108.244L259.141 108.244L263.141 108.244L267.141 108.244L271.141 101.22L271.141 94.195L275.141 94.195L283.141 94.195L287.141 94.195L287.141 87.171L291.141 87.171L295.141 87.171L295.141 80.146L295.141 73.122L299.141 73.122L303.141 73.122L307.141 73.122L311.141 73.122L315.141 73.122L319.141 73.122L319.141 66.098L323.141 66.098L327.141 66.098L331.141 66.098L335.141 66.098L339.141 66.098L343.141 66.098L347.141 66.098L351.141 66.098L355.141 66.098L355.141 59.073L355.141 52.049L355.141 45.024L359.141 45.024L363.141 45.024L363.141 38L367.141 38" fill="none" stroke="#00aa00" stroke-width="2"/></g></g></svg>
